<?xml version="1.0" encoding="UTF-8" standalone="no"?>
<!-- Created with Inkscape (http://www.inkscape.org/) -->

<svg
   width="32"
   height="32"
   viewBox="0 0 8.4666666 8.4666666"
   version="1.1"
   id="svg1"
   inkscape:version="1.4.2 (ebf0e940d0, 2025-05-08)"
   sodipodi:docname="tuning_fork.svg"
   inkscape:export-filename="tuning_fork.png"
   inkscape:export-xdpi="192"
   inkscape:export-ydpi="192"
   xmlns:inkscape="http://www.inkscape.org/namespaces/inkscape"
   xmlns:sodipodi="http://sodipodi.sourceforge.net/DTD/sodipodi-0.dtd"
   xmlns="http://www.w3.org/2000/svg"
   xmlns:svg="http://www.w3.org/2000/svg">
  <sodipodi:namedview
     id="namedview1"
     pagecolor="#505050"
     bordercolor="#eeeeee"
     borderopacity="1"
     inkscape:showpageshadow="0"
     inkscape:pageopacity="0"
     inkscape:pagecheckerboard="0"
     inkscape:deskcolor="#505050"
     inkscape:document-units="mm"
     showgrid="true"
     inkscape:zoom="9.4257277"
     inkscape:cx="10.344029"
     inkscape:cy="24.24216"
     inkscape:window-width="1704"
     inkscape:window-height="993"
     inkscape:window-x="0"
     inkscape:window-y="0"
     inkscape:window-maximized="1"
     inkscape:current-layer="layer1">
    <inkscape:grid
       id="grid1"
       units="px"
       originx="0"
       originy="0"
       spacingx="1.0583333"
       spacingy="1.0583333"
       empcolor="#0099e5"
       empopacity="0.30196078"
       color="#0099e5"
       opacity="0.14901961"
       empspacing="4"
       enabled="true"
       visible="true" />
  </sodipodi:namedview>
  <defs
     id="defs1" />
  <g
     inkscape:label="Layer 1"
     inkscape:groupmode="layer"
     id="layer1">
    <path
       id="rect2"
       style="fill:#ffffff;stroke-width:5.29167;stroke-linecap:round;stroke-linejoin:round"
       d="M 2.3833171 0 C 2.2355975 0 2.1166667 0.11893082 2.1166667 0.26665039 L 2.1166667 3.175 L 2.1166667 3.9666829 L 2.1166667 5.2916667 L 3.7041667 6.8791667 L 3.7041667 8.1100993 C 3.7041667 8.3077544 3.863079 8.4666667 4.060734 8.4666667 L 4.4059326 8.4666667 C 4.6035877 8.4666667 4.7625 8.3077544 4.7625 8.1100993 L 4.7625 6.8791667 L 5.2916667 6.35 L 6.35 5.2916667 L 6.35 3.175 L 6.35 0.26665039 C 6.35 0.11893082 6.2310692 0 6.0833496 0 L 5.5583171 0 C 5.4105975 0 5.2916667 0.11893082 5.2916667 0.26665039 L 5.2916667 3.9666829 L 5.2916667 4.2333333 C 5.2916667 4.2333333 5.2916666 5.291667 4.2333333 5.2916667 C 3.175 5.2916667 3.175 4.2333333 3.175 4.2333333 L 3.175 3.9666829 L 3.175 3.175 L 3.175 0.26665039 C 3.175 0.11893082 3.0560692 0 2.9083496 0 L 2.3833171 0 z " />
  </g>
</svg>
